<svg xmlns="http://www.w3.org/2000/svg" xmlns:xlink="http://www.w3.org/1999/xlink" version="1.1" width="2000" height="2000" viewBox="0 0 640 640" xml:space="preserve">
  <!-- this is de "H" -->
  <g transform="matrix(8.97 0 0 8.97 320 320)" id="swI9zC_i4yjXNDTfc-toD"  >
    <path style="stroke: rgb(156,118,127); stroke-width: 0; stroke-dasharray: none; stroke-linecap: butt; stroke-dashoffset: 0; stroke-linejoin: miter; stroke-miterlimit: 4; fill: rgb(255,255,255); fill-rule: nonzero; opacity: 1;" vector-effect="non-scaling-stroke"  transform=" translate(0, 0)" d="M 0 -35.63474 C 19.67038 -35.63474 35.63474 -19.67037 35.63474 0 C 35.63474 19.67038 19.67037 35.63474 0 35.63474 C -19.67038 35.63474 -35.63474 19.67037 -35.63474 0 C -35.63474 -19.67038 -19.67037 -35.63474 0 -35.63474 z" stroke-linecap="round" />
  </g>

  <g transform="matrix(1.2230645763 0.4941501647 -0.4941501647 1.2230645763 320 320)" id="wa2tDlFVv-OrPg2wV7aij"  >
    <linearGradient id="SVGID_1622" gradientUnits="userSpaceOnUse" gradientTransform="matrix(1 0 0 1 0 0)"  x1="18.2875384694874" y1="332.8297388386484" x2="465.6620029754151" y2="152.07872240929413">
      <stop offset="0%" style="stop-color:#7286D3;stop-opacity: 1"/>
      <stop offset="100%" style="stop-color:#8EA7E9;stop-opacity: 1"/>
    </linearGradient>
    
    <path style="stroke: rgb(44,41,149); stroke-width: 0; stroke-dasharray: none; stroke-linecap: butt; stroke-dashoffset: 0; stroke-linejoin: miter; stroke-miterlimit: 4; fill: url(#SVGID_1622); fill-rule: nonzero; opacity: 1;" vector-effect="non-scaling-stroke"  transform=" translate(-242.31626, -242.31626)" d="M 242.31626 0 C 263.23168 0 283.53093 2.6543 302.8953 7.64422 L 302.8953 175.95140999999998 L 181.73717000000002 270.61051999999995 L 181.73717000000002 121.15807999999996 L 151.73717000000002 121.15807999999996 L 151.73717000000002 294.04909 L 89.87046000000002 342.38466 L 108.34030000000003 366.02497999999997 L 151.73717000000002 332.11963 L 151.73717000000002 467.11502999999993 C 62.80651000000002 431.2170899999999 2.842170943040401e-14 344.0567199999999 2.842170943040401e-14 242.31625999999994 C 2.842170943040401e-14 108.55768999999995 108.55768000000003 -5.684341886080802e-14 242.31626000000003 -5.684341886080802e-14 z M 484.63252 242.31626 C 484.63252 376.07483 376.07484 484.63252 242.31626 484.63252 C 221.40082 484.63252 201.10156 481.97821 181.73717 476.98829 L 181.73717 308.68106 L 302.8953 214.02195 L 302.8953 363.47435 L 332.8953 363.47435 L 332.8953 190.58338 L 394.76202 142.2478 L 376.29218000000003 118.60748000000001 L 332.8953 152.51284 L 332.8953 17.517480000000006 C 421.82599000000005 53.41541000000001 484.63252 140.57579 484.63252 242.31627 z" stroke-linecap="round" />
  </g>
</svg>